<svg xmlns="http://www.w3.org/2000/svg" xmlns:xlink="http://www.w3.org/1999/xlink" width="120" height="32" viewBox="0 0 120 32">
  <defs>
    <style>
      .cls-1 {
        clip-path: url(#clip-logo_1000px_2);
      }

      .cls-2 {
        fill: #fff;
      }

      .cls-3 {
        fill: #00297e;
      }

      .cls-4 {
        fill: #2189d1;
      }
    </style>
    <clipPath id="clip-logo_1000px_2">
      <rect width="120" height="32"/>
    </clipPath>
  </defs>
  <g id="logo_1000px_2" data-name="logo 1000px – 2" class="cls-1">
    <rect class="cls-2" width="120" height="32"/>
    <rect id="Rectangle_442" data-name="Rectangle 442" class="cls-2" width="126" height="39" transform="translate(-3 -3)"/>
    <g id="Group_691" data-name="Group 691" transform="translate(-300.622 -550.305)">
      <path id="Path_117" data-name="Path 117" class="cls-3" d="M3.36-18.311V-28.9H10v2.222H5.952v1.926H9.182v2.222H5.952v2H10.2v2.222Zm8.844,0V-28.9h2.622l2.933,4.948q.178.311.4.763t.356.748l.133.3h.03q-.119-1.141-.119-1.807V-28.9h2.592v10.591H18.544L15.6-23.244q-.178-.311-.4-.763t-.356-.748l-.133-.3h-.03q.119,1.141.119,1.807v4.933Zm13.6,0V-26.68H22.588V-28.9h9.021v2.222H28.394v8.369Zm7.244,0V-28.9h6.636v2.222H35.638v1.926h3.229v2.222H35.638v2H39.89v2.222Zm8.844,0V-28.9h3.689a6.153,6.153,0,0,1,2.059.252A2.935,2.935,0,0,1,49.074-27.5a3.455,3.455,0,0,1,.518,1.933,3.663,3.663,0,0,1-.415,1.7,2.657,2.657,0,0,1-1.17,1.192v.03a5.95,5.95,0,0,1,.4.637l2.059,3.7H47.578L45.7-21.881H44.482v3.57ZM44.482-24.1h1.126a1.376,1.376,0,0,0,.992-.341,1.271,1.271,0,0,0,.356-.963,1.243,1.243,0,0,0-.341-.963,1.9,1.9,0,0,0-1.259-.311h-.874Zm7.644,5.792V-28.9h4.4a3.259,3.259,0,0,1,2.5,1.022,3.686,3.686,0,0,1,.955,2.622,3.733,3.733,0,0,1-.955,2.644,3.247,3.247,0,0,1-2.5,1.03H54.718v3.274Zm2.592-5.5h1.274a1.254,1.254,0,0,0,1-.4,1.545,1.545,0,0,0,.348-1.052A1.509,1.509,0,0,0,57-26.3a1.218,1.218,0,0,0-.963-.385H54.718Zm6.933,5.5V-28.9h3.688a6.153,6.153,0,0,1,2.059.252A2.935,2.935,0,0,1,68.835-27.5a3.455,3.455,0,0,1,.518,1.933,3.663,3.663,0,0,1-.415,1.7,2.657,2.657,0,0,1-1.17,1.192v.03a5.946,5.946,0,0,1,.4.637l2.059,3.7H67.339l-1.881-3.57H64.243v3.57ZM64.243-24.1h1.126a1.376,1.376,0,0,0,.992-.341,1.271,1.271,0,0,0,.356-.963,1.243,1.243,0,0,0-.341-.963,1.9,1.9,0,0,0-1.259-.311h-.874Zm7.644,5.792V-28.9h2.592v10.591Zm4.429-1.333,1.363-1.97q.133.118.37.3a5.048,5.048,0,0,0,.9.489,3.045,3.045,0,0,0,1.259.3,1.473,1.473,0,0,0,.785-.2.7.7,0,0,0,.326-.644.7.7,0,0,0-.356-.541,3.584,3.584,0,0,0-.881-.452,12.239,12.239,0,0,1-1.148-.5,10.115,10.115,0,0,1-1.148-.652,2.842,2.842,0,0,1-.881-.955,2.676,2.676,0,0,1-.356-1.378,2.916,2.916,0,0,1,1.074-2.34,4.011,4.011,0,0,1,2.674-.9,5.5,5.5,0,0,1,1.859.3,3.9,3.9,0,0,1,1.192.6l.356.3-1.1,2.118q-.119-.1-.333-.259a4.769,4.769,0,0,0-.83-.415,3.029,3.029,0,0,0-1.178-.259,1.47,1.47,0,0,0-.793.207.685.685,0,0,0-.333.622q0,.356.489.637a8.317,8.317,0,0,0,1.192.548,14.572,14.572,0,0,1,1.407.622,3.3,3.3,0,0,1,1.192,1.03,2.664,2.664,0,0,1,.489,1.607,3.093,3.093,0,0,1-1.007,2.333,3.8,3.8,0,0,1-2.726.955,5.788,5.788,0,0,1-1.348-.156,4.965,4.965,0,0,1-1.089-.378,8.383,8.383,0,0,1-.778-.444,2.616,2.616,0,0,1-.489-.385Zm9.51,1.333V-28.9h6.636v2.222H88.418v1.926h3.229v2.222H88.418v2h4.251v2.222Z" transform="translate(327.953 582)"/>
      <path id="Path_118" data-name="Path 118" class="cls-4" d="M3.36-18.311V-28.9H5.952v8.37h4.325v2.222Zm8.473,0V-28.9H18.47v2.222H14.426v1.926h3.229v2.222H14.426v2h4.251v2.222Zm14.8,0-.652-2.222h-3.3l-.637,2.222H19.373l3.6-10.591H25.7l3.6,10.591ZM24.35-26.488h-.03q-.237,1.155-.43,1.822l-.607,2.059h2.089l-.593-2.059Zm5.5,2.859a5.253,5.253,0,0,1,1.578-3.888A5.419,5.419,0,0,1,35.4-29.08a7.065,7.065,0,0,1,1.459.148,5.918,5.918,0,0,1,1.155.348,7.5,7.5,0,0,1,.8.407,3.325,3.325,0,0,1,.511.356l.148.148L38.23-25.732q-.119-.1-.341-.267a4.815,4.815,0,0,0-.9-.437,3.538,3.538,0,0,0-1.341-.274,3.024,3.024,0,0,0-2.348.852,3.054,3.054,0,0,0-.778,2.141,3.148,3.148,0,0,0,.881,2.34,2.944,2.944,0,0,0,2.155.874,3.225,3.225,0,0,0,1.089-.193,3.341,3.341,0,0,0,.807-.385l.252-.193v-.815h-1.5V-24.3h3.792v5.985H37.845v-.3l.015-.444h-.03q-.118.1-.333.259a4.315,4.315,0,0,1-.941.407,4.577,4.577,0,0,1-1.511.252,5.065,5.065,0,0,1-3.666-1.5A5.333,5.333,0,0,1,29.846-23.629Zm12.1,1.422v-6.7h2.592v6.7a1.6,1.6,0,0,0,.5,1.259,1.935,1.935,0,0,0,1.341.444,1.935,1.935,0,0,0,1.341-.444,1.6,1.6,0,0,0,.5-1.259v-6.7h2.592v6.7a3.838,3.838,0,0,1-1.215,2.94,4.5,4.5,0,0,1-3.2,1.133,4.55,4.55,0,0,1-3.222-1.133A3.826,3.826,0,0,1,41.949-22.207Zm11.332,3.9V-28.9h6.636v2.222H55.873v1.926H59.1v2.222H55.873v2h4.251v2.222Z" transform="translate(327.953 597.568)"/>
      <path id="Union_6" data-name="Union 6" class="cls-4" d="M0,26.222V22.039H6.917V0h4.344V26.222Z" transform="translate(315.795 553.069)"/>
      <path id="Union_5" data-name="Union 5" class="cls-3" d="M3.447,26.222V15.17H0V10.926H3.447V0H21.786V4.183h-14v6.743H14.91V15.17H7.79v6.87h7.078v4.183Z" transform="translate(300.927 553.069)"/>
    </g>
  </g>
</svg>